<?xml version="1.0" encoding="UTF-8"?>
<svg width="14px" height="20px" viewBox="0 0 14 20" version="1.1" xmlns="http://www.w3.org/2000/svg" xmlns:xlink="http://www.w3.org/1999/xlink">
    <!-- Generator: Sketch 63.1 (92452) - https://sketch.com -->
    <title>fa-solid:mobile-alt</title>
    <desc>Created with Sketch.</desc>
    <g id="Welcome" stroke="none" stroke-width="1" fill="none" fill-rule="evenodd">
        <g id="Desktop-GameList" transform="translate(-524.000000, -1331.000000)" fill-rule="nonzero">
            <g id="Cards" transform="translate(50.000000, 458.000000)">
                <g id="Dota-Underlords" transform="translate(318.000000, 627.000000)">
                    <g id="Platforms" transform="translate(0.000000, 244.000000)">
                        <g id="fa-solid:mobile-alt" transform="translate(156.000000, 2.000000)">
                            <g id="Icon" transform="translate(0.250000, 0.000000)" fill="#FFFFFF">
                                <path class="st0" d="M0.9,6.5c-0.3,0-0.5,0.1-0.7,0.4s-0.3,0.5-0.3,0.9v5.2c0,0.3,0.1,0.6,0.3,0.9c0.2,0.2,0.4,0.4,0.7,0.4
                                c0.3,0,0.5-0.1,0.7-0.4c0.2-0.2,0.3-0.5,0.3-0.9V7.7c0-0.3-0.1-0.6-0.3-0.9S1.1,6.5,0.9,6.5z"/>
                            <path class="st0" d="M9,1.8l0.7-1.6c0-0.1,0-0.2,0-0.2C9.6,0,9.5,0,9.5,0.1L8.8,1.7c-0.6-0.3-1.3-0.5-2-0.5
                                c-0.7,0-1.4,0.2-2,0.5L4.1,0.1C4,0,4,0,3.9,0c-0.1,0.1-0.1,0.1,0,0.2l0.7,1.6C3.8,2.3,3.3,2.9,2.9,3.7
                                C2.4,4.5,2.2,5.3,2.2,6.3h9.1c0-0.9-0.2-1.8-0.6-2.6C10.3,2.9,9.7,2.3,9,1.8z M5,4.1C4.9,4.2,4.8,4.3,4.7,4.3
                                c-0.1,0-0.2,0-0.3-0.1C4.4,4,4.3,3.9,4.3,3.8c0-0.1,0-0.2,0.1-0.3c0.1-0.1,0.2-0.1,0.3-0.1c0.1,0,0.2,0,0.3,0.1
                                c0.1,0.1,0.1,0.2,0.1,0.3C5.1,3.9,5.1,4,5,4.1z M9.1,4.1C9.1,4.2,9,4.3,8.9,4.3c-0.1,0-0.2,0-0.3-0.1C8.5,4,8.5,3.9,8.5,3.8
                                c0-0.1,0-0.2,0.1-0.3c0.1-0.1,0.2-0.1,0.3-0.1c0.1,0,0.2,0,0.3,0.1c0.1,0.1,0.1,0.2,0.1,0.3C9.3,3.9,9.2,4,9.1,4.1z"/>
                            <path class="st0" d="M2.3,14.7c0,0.4,0.1,0.7,0.3,0.9C2.8,15.9,3,16,3.3,16h0.7l0,2.7c0,0.3,0.1,0.6,0.3,0.9S4.8,20,5.1,20
                                c0.3,0,0.5-0.1,0.7-0.4c0.2-0.2,0.3-0.5,0.3-0.9V16h1.4v2.7c0,0.3,0.1,0.6,0.3,0.9S8.2,20,8.5,20c0.3,0,0.5-0.1,0.7-0.4
                                s0.3-0.5,0.3-0.9V16h0.7c0.3,0,0.5-0.1,0.8-0.4c0.2-0.3,0.3-0.6,0.3-0.9v-8H2.3V14.7z"/>
                            <path class="st0" d="M12.7,6.5c-0.3,0-0.5,0.1-0.7,0.4c-0.2,0.2-0.3,0.5-0.3,0.9v5.2c0,0.3,0.1,0.6,0.3,0.9s0.4,0.4,0.7,0.4
                                c0.3,0,0.5-0.1,0.7-0.4s0.3-0.5,0.3-0.9V7.7c0-0.3-0.1-0.6-0.3-0.9C13.3,6.6,13,6.5,12.7,6.5z"/>
                            </g>
                            <rect id="ViewBox" x="0.25" y="0" width="13" height="20"></rect>
                        </g>
                    </g>
                </g>
            </g>
        </g>
    </g>
</svg>