<?xml version="1.0" encoding="UTF-8"?>
<svg width="14px" height="20px" viewBox="0 0 14 20" version="1.1" xmlns="http://www.w3.org/2000/svg" xmlns:xlink="http://www.w3.org/1999/xlink">
    <!-- Generator: Sketch 63.1 (92452) - https://sketch.com -->
    <title>fa-solid:mobile-alt</title>
    <desc>Created with Sketch.</desc>
    <g id="Welcome" stroke="none" stroke-width="1" fill="none" fill-rule="evenodd">
        <g id="Desktop-GameList" transform="translate(-524.000000, -1331.000000)" fill-rule="nonzero">
            <g id="Cards" transform="translate(50.000000, 458.000000)">
                <g id="Dota-Underlords" transform="translate(318.000000, 627.000000)">
                    <g id="Platforms" transform="translate(0.000000, 244.000000)">
                        <g id="fa-solid:mobile-alt" transform="translate(156.000000, 2.000000)">
                            <g id="Icon" transform="translate(0.250000, 0.000000)" fill="#FFFFFF">
                                <path class="st0" d="M13.5,4.8c-0.1-0.3-0.4-0.8-0.9-1.2c-0.3-0.2-0.6-0.4-1-0.5c-0.5-0.1-1-0.2-1.7-0.2H3.6
                                c-0.7,0-1.2,0-1.7,0.2c-0.4,0.1-0.7,0.3-1,0.5C0.5,3.9,0.2,4.4,0,4.8c-0.3,0.7-0.3,1.5-0.3,2V13c0,0.5,0,1.3,0.3,2
                                c0.1,0.3,0.5,0.8,0.9,1.2c0.3,0.2,0.6,0.4,1,0.5c0.5,0.1,1,0.2,1.7,0.2h6.3c0.7,0,1.2,0,1.7-0.2c0.4-0.1,0.7-0.3,1-0.5
                                c0.4-0.3,0.8-0.8,0.9-1.2c0.3-0.7,0.3-1.5,0.3-2V6.7C13.8,6.2,13.7,5.5,13.5,4.8L13.5,4.8z M2.5,12.5H2V9.4h0.5V12.5z
                                 M2.3,8.9c-0.2,0-0.3-0.1-0.3-0.3s0.1-0.3,0.3-0.3s0.3,0.1,0.3,0.3C2.6,8.7,2.4,8.9,2.3,8.9z M5.4,12.6c-1.4,0-2.2-1-2.2-2.5
                                S4,7.5,5.4,7.5s2.2,1,2.2,2.5S6.8,12.6,5.4,12.6z M9.9,12.6c-1,0-1.8-0.6-1.8-1.4h0.5c0.1,0.6,0.6,1,1.4,1
                                c0.7,0,1.3-0.4,1.3-1c0-0.5-0.3-0.7-1.1-0.9l-0.6-0.2C8.7,9.9,8.3,9.5,8.3,8.9c0-0.8,0.7-1.4,1.7-1.4c1,0,1.7,0.6,1.7,1.4
                                h-0.5c0-0.6-0.5-0.9-1.2-0.9c-0.7,0-1.2,0.4-1.2,0.9c0,0.4,0.3,0.7,1,0.9l0.5,0.1c1,0.2,1.4,0.6,1.4,1.3
                                C11.7,12,11,12.6,9.9,12.6L9.9,12.6z M7.2,10.1c0,1.3-0.7,2.1-1.8,2.1s-1.8-0.8-1.8-2.1c0-1.3,0.7-2.1,1.8-2.1
                                S7.2,8.8,7.2,10.1z"/>
                            </g>
                            <rect id="ViewBox" x="0.25" y="0" width="13" height="20"></rect>
                        </g>
                    </g>
                </g>
            </g>
        </g>
    </g>
</svg>