<?xml version="1.0" encoding="UTF-8"?>
<svg width="18px" height="20px" viewBox="0 0 18 20" version="1.1" xmlns="http://www.w3.org/2000/svg" xmlns:xlink="http://www.w3.org/1999/xlink">
    <!-- Generator: Sketch 63.1 (92452) - https://sketch.com -->
    <title>Icon Shape</title>
    <desc>Created with Sketch.</desc>
    <g id="Welcome" stroke="none" stroke-width="1" fill="none" fill-rule="evenodd">
        <g id="Desktop-GameList" transform="translate(-556.000000, -1331.000000)" fill="#FFFFFF" fill-rule="nonzero">
            <g id="Cards" transform="translate(50.000000, 458.000000)">
                <g id="Dota-Underlords" transform="translate(318.000000, 627.000000)">
                    <g id="Platforms" transform="translate(0.000000, 244.000000)">
                        <g id="cib-linux" transform="translate(187.000000, 2.000000)">
                            <g id="Icon" transform="translate(1.000000, 0.000000)">
                                <path d="M9.42,0 C9.29,0 9.156875,0.006875 9.019375,0.016875 C5.4975,0.29625 6.431875,4.02375 6.379375,5.266875 C6.314375,6.175 6.129375,6.894375 5.504375,7.78375 C4.765,8.659375 3.73,10.075625 3.23875,11.549375 C3.008125,12.2425 2.896875,12.95625 3.00125,13.626875 C2.96194197,13.6560018 2.92968781,13.6935961 2.906875,13.736875 C2.691875,13.961875 2.531875,14.23875 2.35625,14.436875 C2.190625,14.6025 1.953125,14.65875 1.691875,14.769375 C1.431875,14.8825 1.141875,14.99375 0.9725,15.33875 C0.8975,15.495625 0.858125,15.664375 0.861875,15.840625 C0.861875,16.003125 0.885,16.1725 0.9075,16.28625 C0.956875,16.618125 1.005,16.891875 0.94,17.09375 C0.731875,17.659375 0.709375,18.046875 0.8525,18.330625 C0.998125,18.610625 1.298125,18.72125 1.633125,18.8325 C2.310625,18.998125 3.225,18.945625 3.948125,19.33 C4.71875,19.720625 5.50375,19.89 6.12875,19.724375 C6.56533535,19.6264759 6.93466281,19.3372574 7.134375,18.936875 C7.6225,18.93375 8.159375,18.711875 9.01625,18.656875 C9.59875,18.6075 10.328125,18.88125 11.164375,18.8225 C11.186875,18.936875 11.21625,18.988125 11.261875,19.1025 L11.261875,19.105625 C11.586875,19.753125 12.189375,20.04625 12.834375,19.9975 C13.475,19.945625 14.15875,19.551875 14.711875,18.9075 C15.239375,18.2725 16.115,18.005 16.694375,17.6575 C16.984375,17.490625 17.21875,17.266875 17.235,16.944375 C17.254375,16.6125 17.069375,16.2675 16.6425,15.79875 L16.6425,15.716875 L16.639375,15.71375 C16.49625,15.548125 16.43125,15.268125 16.35625,14.943125 C16.284375,14.6075 16.20625,14.28875 15.94625,14.070625 C15.89375,14.025 15.841875,14.015 15.786875,13.96 C15.7406998,13.9274654 15.6863821,13.9084218 15.63,13.905 C15.988125,12.84 15.848125,11.7825 15.483125,10.828125 C15.040625,9.653125 14.2625,8.628125 13.673125,7.925 C13.00875,7.088125 12.358125,6.294375 12.37125,5.119375 C12.39375,3.325 12.569375,0.00875 9.41875,0.001875 L9.42,0 Z M9.859375,2.838125 L9.8725,2.838125 C10.048125,2.838125 10.200625,2.890625 10.3575,3.00125 C10.516875,3.114375 10.634375,3.278125 10.721875,3.446875 C10.81,3.661875 10.85625,3.8275 10.861875,4.04875 C10.861875,4.033125 10.865,4.01625 10.865,4.000625 L10.865,4.088125 C10.865,4.08125 10.861875,4.075625 10.861875,4.06875 L10.85875,4.04875 C10.85875,4.25125 10.816875,4.453125 10.735625,4.638125 C10.6970136,4.74344522 10.6357851,4.83902153 10.55625,4.918125 C10.53375,4.905625 10.510625,4.8925 10.484375,4.8825 C10.396875,4.843125 10.31875,4.830625 10.246875,4.7725 C10.1877325,4.74880699 10.1266782,4.73019797 10.064375,4.716875 C10.10375,4.66875 10.185,4.60625 10.2175,4.55125 C10.26,4.446875 10.2825,4.333125 10.289375,4.21625 L10.289375,4.199375 C10.291149,4.08654988 10.273387,3.97426859 10.236875,3.8675 C10.20125,3.756875 10.15625,3.700625 10.0875,3.590625 C10.015625,3.535 9.9475,3.48 9.8625,3.48 L9.85,3.48 C9.771875,3.48 9.703125,3.5025 9.631875,3.590625 C9.55367776,3.66771952 9.49552908,3.76277439 9.4625,3.8675 C9.41709722,3.97250427 9.39166294,4.08505099 9.3875,4.199375 L9.3875,4.21625 C9.3875,4.290625 9.394375,4.365625 9.403125,4.440625 C9.240625,4.385625 9.03875,4.32625 8.895625,4.27125 C8.88783788,4.21636524 8.8834545,4.16105121 8.8825,4.105625 L8.8825,4.08875 C8.87617353,3.86864641 8.91864791,3.64987136 9.006875,3.448125 C9.075,3.265625 9.19875,3.10875 9.365,3.005 C9.5075,2.898125 9.68,2.839375 9.859375,2.839375 L9.859375,2.838125 Z M7.391875,2.8875 L7.42125,2.8875 C7.53875,2.8875 7.64625,2.926875 7.75375,2.998125 C7.876875,3.105625 7.975625,3.23875 8.040625,3.385 C8.115625,3.551875 8.1575,3.720625 8.170625,3.941875 L8.170625,3.945 C8.17375,4.055625 8.17375,4.115 8.1675,4.166875 L8.1675,4.235 L8.099375,4.254375 C7.9725,4.3 7.871875,4.365 7.77,4.42125 C7.78,4.34625 7.78,4.27125 7.773125,4.199375 L7.773125,4.18625 C7.76375,4.07625 7.740625,4.020625 7.705,3.909375 C7.6783214,3.8238268 7.63011417,3.74656612 7.565,3.685 C7.52406938,3.64850412 7.47038876,3.62963729 7.415625,3.6325 L7.395625,3.6325 C7.3375,3.635625 7.288125,3.665 7.243125,3.743125 C7.18803041,3.80649798 7.1530069,3.88481141 7.1425,3.968125 C7.119375,4.055625 7.1125,4.15 7.1225,4.245 L7.1225,4.254375 C7.1325,4.36875 7.151875,4.424375 7.190625,4.534375 C7.21577217,4.61916037 7.26301097,4.69573468 7.3275,4.75625 C7.3375,4.76625 7.344375,4.773125 7.356875,4.775625 C7.29875,4.825 7.259375,4.835 7.21125,4.89 C7.178125,4.913125 7.143125,4.9425 7.100625,4.949375 C7.01394543,4.84511277 6.93754841,4.73271497 6.8725,4.61375 C6.79275677,4.43855184 6.74857018,4.24927181 6.7425,4.056875 C6.72988154,3.86883577 6.75191385,3.6800782 6.8075,3.5 C6.856875,3.3375 6.935,3.184375 7.045,3.054375 C7.1525,2.94375 7.26,2.88875 7.393125,2.88875 L7.391875,2.8875 Z M8.534375,4.31 C8.81125,4.31 9.14375,4.361875 9.546875,4.641875 C9.79125,4.80875 9.98375,4.866875 10.42625,5.029375 C10.64125,5.14375 10.764375,5.254375 10.82625,5.365 L10.82625,5.254375 C10.8862868,5.3764935 10.8910658,5.51849644 10.839375,5.644375 C10.735,5.905 10.409375,6.181875 9.95125,6.3475 L9.95125,6.350625 C9.729375,6.46125 9.534375,6.6275 9.30625,6.738125 C9.075625,6.84875 8.814375,6.9825 8.463125,6.96 C8.33592377,6.96558228 8.20883326,6.94669905 8.08875,6.904375 C7.9961704,6.85522735 7.90700986,6.79989352 7.821875,6.73875 C7.659375,6.628125 7.519375,6.461875 7.31125,6.35125 L7.31125,6.348125 L7.308125,6.348125 C6.9725,6.143125 6.79375,5.92125 6.735,5.755625 C6.68,5.53125 6.731875,5.365625 6.898125,5.255 C7.083125,5.144375 7.213125,5.03 7.298125,4.975 C7.385625,4.913125 7.41875,4.89 7.445,4.8675 L7.448125,4.8675 L7.448125,4.864375 C7.588125,4.695 7.80875,4.47375 8.148125,4.3625 C8.26125,4.333125 8.3925,4.310625 8.535,4.310625 L8.534375,4.31 Z M10.865,6.093125 C11.165,7.275 11.865,8.990625 12.314375,9.820625 C12.551875,10.26625 13.026875,11.20375 13.231875,12.340625 C13.361875,12.3375 13.505,12.35625 13.65875,12.395625 C14.19875,11.0025 13.20625,9.505 12.75375,9.088125 C12.568125,8.9225 12.55875,8.81125 12.649375,8.81125 C13.14125,9.25375 13.785,10.120625 14.019375,11.10625 C14.126875,11.551875 14.15375,12.028125 14.039375,12.499375 C14.094375,12.521875 14.15,12.55125 14.20875,12.554375 C15.068125,13.00125 15.386875,13.33625 15.23375,13.836875 L15.23375,13.80125 C15.185625,13.79875 15.133125,13.80125 15.084375,13.80125 L15.07125,13.80125 C15.19875,13.41125 14.91875,13.11125 14.183125,12.779375 C13.42125,12.4475 12.8125,12.499375 12.708125,13.166875 C12.7007582,13.204582 12.6965768,13.2428419 12.695625,13.28125 C12.63625,13.300625 12.578125,13.323125 12.52,13.333125 C12.161875,13.558125 11.969375,13.893125 11.859375,14.323125 C11.751875,14.76875 11.719375,15.28625 11.69,15.8825 C11.67,16.1625 11.546875,16.581875 11.4225,17.008125 C10.1725,17.903125 8.4375,18.290625 6.966875,17.288125 C6.871875,17.125625 6.76125,16.975625 6.63125,16.8425 C6.56883551,16.7390648 6.49107386,16.6457087 6.400625,16.565625 C6.553125,16.565625 6.68375,16.54 6.788125,16.51 C6.90733003,16.452572 7.00105985,16.3530536 7.05125,16.230625 C7.139375,16.00875 7.05125,15.650625 6.76125,15.26 C6.475625,14.873125 5.986875,14.433125 5.27375,13.994375 C4.746875,13.6625 4.450625,13.26875 4.31375,12.831875 C4.176875,12.38625 4.19625,11.926875 4.300625,11.461875 C4.505625,10.57 5.03,9.70125 5.365625,9.156875 C5.453125,9.105 5.395,9.27125 5.02375,9.97125 C4.694375,10.59625 4.073125,12.05125 4.921875,13.180625 C4.95449851,12.3557983 5.13772204,11.5438957 5.4625,10.785 C5.930625,9.720625 6.914375,7.865625 6.9925,6.394375 C7.031875,6.426875 7.171875,6.50875 7.233125,6.56375 C7.4125,6.674375 7.54875,6.840625 7.725,6.95125 C7.900625,7.116875 8.121875,7.23125 8.454375,7.23125 C8.486875,7.234375 8.51625,7.234375 8.545,7.234375 C8.886875,7.234375 9.154375,7.12375 9.375,7.0125 C9.615625,6.898125 9.811875,6.7325 9.993125,6.6775 L9.99625,6.6775 C10.38375,6.566875 10.693125,6.341875 10.865625,6.094375 L10.865,6.093125 Z M12.688125,13.558125 C12.720625,14.05875 12.975,14.59625 13.42375,14.70625 C13.911875,14.816875 14.618125,14.429375 14.914375,14.06875 L15.09,14.061875 C15.353125,14.055 15.571875,14.06875 15.795625,14.28375 L15.79875,14.286875 C15.97125,14.4525 16.053125,14.729375 16.124375,15.01625 C16.19625,15.35125 16.25125,15.666875 16.46625,15.904375 C16.869375,16.34375 17.003125,16.659375 16.996875,16.855 C16.98375,17.0725 16.84,17.183125 16.58,17.349375 C16.055625,17.685 15.125,17.941875 14.5325,18.65875 C14.0175,19.27375 13.39,19.60875 12.835625,19.65125 C12.2825,19.696875 11.80375,19.485625 11.52375,18.903125 L11.520625,18.9 C11.345,18.5675 11.42,18.046875 11.56625,17.493125 C11.713125,16.93625 11.924375,16.370625 11.95375,15.91125 C11.983125,15.315625 12.015625,14.798125 12.113125,14.396875 C12.21375,14.009375 12.370625,13.7325 12.650625,13.58 L12.68625,13.56 L12.688125,13.558125 Z M3.674375,13.6 L3.684375,13.6 C3.73,13.6 3.7725,13.603125 3.814375,13.613125 C4.126875,13.65875 4.40375,13.89 4.6675,14.238125 L5.425625,15.625 L5.42875,15.628125 C5.630625,16.070625 6.056875,16.513125 6.418125,16.9925 C6.78,17.49 7.06,17.935625 7.0275,18.300625 L7.0275,18.3075 C6.978125,18.925625 6.626875,19.260625 6.09,19.385 C5.5525,19.495625 4.823125,19.385 4.094375,18.9975 C3.2875,18.551875 2.326875,18.606875 1.711875,18.495625 C1.40625,18.440625 1.204375,18.32625 1.109375,18.160625 C1.01875,17.995 1.015,17.65875 1.21375,17.135 L1.21375,17.1325 C1.31125,16.8525 1.240625,16.504375 1.19125,16.198125 C1.145625,15.865625 1.123125,15.608125 1.226875,15.41625 C1.36,15.13625 1.55875,15.084375 1.8025,14.970625 C2.046875,14.86 2.336875,14.805 2.564375,14.58 L2.5675,14.58 L2.5675,14.576875 C2.779375,14.35625 2.939375,14.079375 3.124375,13.88 C3.28125,13.710625 3.44,13.6 3.674375,13.6 L3.674375,13.6 Z M9.641875,6.038125 C9.28,6.20375 8.85375,6.48375 8.40125,6.48375 C7.94875,6.48375 7.59375,6.263125 7.336875,6.09625 C7.206875,5.983125 7.1025,5.871875 7.024375,5.81625 C6.8875,5.70625 6.90375,5.536875 6.9625,5.536875 C7.053125,5.549375 7.07,5.65 7.128125,5.70625 C7.21,5.76125 7.3075,5.871875 7.4275,5.983125 C7.671875,6.14875 7.9975,6.373125 8.400625,6.373125 C8.805,6.373125 9.28,6.14875 9.56625,5.983125 C9.72875,5.8725 9.936875,5.70625 10.10625,5.595625 C10.23625,5.48125 10.230625,5.370625 10.336875,5.370625 C10.444375,5.38375 10.366875,5.48125 10.216875,5.6475 C10.06375,5.761875 9.829375,5.9275 9.64125,6.038125 L9.641875,6.038125 Z M8.74,4.716875 L8.74,4.70125 C8.736875,4.684375 8.749375,4.665625 8.765625,4.65875 C8.82375,4.623125 8.915,4.635625 8.980625,4.661875 C9.0325,4.661875 9.11375,4.716875 9.1075,4.775 C9.100625,4.814375 9.035625,4.830625 8.993125,4.830625 C8.948125,4.830625 8.915,4.795 8.87625,4.7725 C8.83375,4.759375 8.751875,4.765625 8.739375,4.716875 L8.74,4.716875 Z M8.280625,4.716875 C8.26375,4.76625 8.185625,4.759375 8.14375,4.7725 C8.104375,4.795 8.071875,4.830625 8.02625,4.830625 C7.98375,4.830625 7.915625,4.81375 7.911875,4.7725 C7.90625,4.716875 7.98375,4.661875 8.03625,4.661875 C8.104375,4.635 8.18875,4.6225 8.25375,4.65875 C8.266875,4.665625 8.28375,4.684375 8.276875,4.70125 L8.276875,4.716875 L8.280625,4.716875 Z" id="Icon-Shape"></path>
                            </g>
                        </g>
                    </g>
                </g>
            </g>
        </g>
    </g>
</svg>