<?xml version="1.0" encoding="UTF-8"?>
<svg width="20px" height="20px" viewBox="0 0 20 20" version="1.1" xmlns="http://www.w3.org/2000/svg" xmlns:xlink="http://www.w3.org/1999/xlink">
    <!-- Generator: Sketch 63.1 (92452) - https://sketch.com -->
    <title>cib-nintendo-switch</title>
    <desc>Created with Sketch.</desc>
    <g id="Welcome" stroke="none" stroke-width="1" fill="none" fill-rule="evenodd">
        <g id="Desktop-GameList" transform="translate(-487.000000, -1331.000000)" fill-rule="nonzero">
            <g id="Cards" transform="translate(50.000000, 458.000000)">
                <g id="Dota-Underlords" transform="translate(318.000000, 627.000000)">
                    <g id="Platforms" transform="translate(0.000000, 244.000000)">
                        <g id="cib-nintendo-switch" transform="translate(119.000000, 2.000000)">
                            <g id="Icon" fill="#FFFFFF">
                                <path class="st0" d="M10.9,1.7C12.2,0,14.1,0,14.1,0s0.3,1.6-1.1,3.2C11.6,4.9,10,4.6,10,4.6S9.7,3.3,10.9,1.7z M10.1,5.7
                                c0.7,0,2-0.9,3.7-0.9c2.9,0,4,2,4,2s-2.2,1.1-2.2,3.8c0,3,2.8,4.1,2.8,4.1S16.5,20,13.8,20c-1.2,0-2.1-0.8-3.4-0.8
                                C9.1,19.2,7.9,20,7,20c-2.4,0-5.4-5-5.4-9.1c0-4,2.6-6.1,5-6.1C8.1,4.9,9.3,5.7,10.1,5.7L10.1,5.7z"/>
                            </g>
                            <rect id="ViewBox" x="0" y="0" width="20" height="20"></rect>
                        </g>
                    </g>
                </g>
            </g>
        </g>
    </g>
</svg>