<?xml version="1.0" encoding="UTF-8"?>
<svg width="20px" height="20px" viewBox="0 0 20 20" version="1.1" xmlns="http://www.w3.org/2000/svg" xmlns:xlink="http://www.w3.org/1999/xlink">
    <!-- Generator: Sketch 63.1 (92452) - https://sketch.com -->
    <title>cib-nintendo-switch</title>
    <desc>Created with Sketch.</desc>
    <g id="Welcome" stroke="none" stroke-width="1" fill="none" fill-rule="evenodd">
        <g id="Desktop-GameList" transform="translate(-487.000000, -1331.000000)" fill-rule="nonzero">
            <g id="Cards" transform="translate(50.000000, 458.000000)">
                <g id="Dota-Underlords" transform="translate(318.000000, 627.000000)">
                    <g id="Platforms" transform="translate(0.000000, 244.000000)">
                        <g id="cib-nintendo-switch" transform="translate(119.000000, 2.000000)">
                            <g id="Icon" fill="#FFFFFF">
                                <path d="M11.813125,20 L14.87625,20 C17.68875,20 20,17.68875 20,14.87625 L20,5.12375 C20,2.31125 17.68875,0 14.87625,0 L11.75125,0 C11.689375,0 11.624375,0.061875 11.624375,0.12375 L11.624375,19.87625 C11.624375,19.938125 11.68625,20 11.813125,20 Z M15.625,9.000625 C16.75125,9.000625 17.62375,9.938125 17.62375,10.999375 C17.62375,12.125625 16.68625,12.998125 15.625,12.998125 C14.49875,12.998125 13.62625,12.125625 13.62625,10.999375 C13.56125,9.87625 14.49875,9.000625 15.625,9.000625 Z M9.49875,0 L5.12375,0 C2.31125,0 0,2.31125 0,5.12375 L0,14.87625 C0,17.68875 2.31125,20 5.12375,20 L9.49875,20 C9.560625,20 9.625625,19.938125 9.625625,19.87625 L9.625625,0.12375 C9.625625,0.061875 9.56375,0 9.49875,0 Z M8.063125,18.3756295 L5.12375,18.3756295 C4.19520018,18.3771212 3.30425088,18.0089186 2.64766615,17.3523339 C1.99108142,16.6957491 1.62287881,15.8047998 1.62437046,14.87625 L1.62437046,5.12375 C1.62287881,4.19520018 1.99108142,3.30425088 2.64766615,2.64766615 C3.30425088,1.99108142 4.19520018,1.62287881 5.12375,1.62437046 L8.00125,1.62437046 L8.063125,18.3756295 Z M3.125,5.999375 C3.125,7.060625 3.93875,7.874375 5,7.874375 C6.06125,7.874375 6.875,7.060625 6.875,5.999375 C6.875,4.938125 6.06125,4.124375 5,4.124375 C3.93875,4.124375 3.125,4.938125 3.125,5.999375 Z" id="Icon-Shape"></path>
                            </g>
                            <rect id="ViewBox" x="0" y="0" width="20" height="20"></rect>
                        </g>
                    </g>
                </g>
            </g>
        </g>
    </g>
</svg>