<?xml version="1.0" encoding="UTF-8"?>
<svg width="24px" height="20px" viewBox="0 0 24 20" version="1.1" xmlns="http://www.w3.org/2000/svg" xmlns:xlink="http://www.w3.org/1999/xlink">
    <!-- Generator: Sketch 63.1 (92452) - https://sketch.com -->
    <title>Icon Shape</title>
    <desc>Created with Sketch.</desc>
    <g id="Welcome" stroke="none" stroke-width="1" fill="none" fill-rule="evenodd">
        <g id="Desktop-GameList" transform="translate(-409.000000, -1331.000000)" fill="#FFFFFF" fill-rule="nonzero">
            <g id="Cards" transform="translate(50.000000, 458.000000)">
                <g id="Dota-Underlords" transform="translate(318.000000, 627.000000)">
                    <g id="Platforms" transform="translate(0.000000, 244.000000)">
                        <g id="cib-playstation" transform="translate(41.000000, 0.000000)">
                            <g id="Icon">
                                <path class="st0" d="M23.6,11.8c0,0-0.1,0.1-0.1,0.1c0,0.1-0.1,0.2-0.1,0.3c-0.1-0.1-0.1-0.3-0.2-0.4c0,0.2,0,0.4,0,0.5
        c0,0,0,0,0,0c0-0.1,0-0.2,0-0.3c0,0,0,0,0,0c0,0.1,0.1,0.2,0.2,0.4c0.1-0.2,0.1-0.3,0.2-0.4c0,0.1,0,0.2,0,0.3c0,0,0,0.1,0.1,0.1
         M15.3,12.3c0.1,0,0.1,0,0.1,0c1.8,0,3.6,0,5.4,0c0.1,0,0.2,0,0.3,0c0.6-0.1,1-0.6,1-1.2c0-0.6-0.3-1.1-0.9-1.3
        c-0.2-0.1-0.4-0.1-0.6-0.1c-0.9,0-1.8,0-2.8,0c-0.4,0-0.8,0-1.2,0c-0.2,0-0.4-0.1-0.4-0.3c0-0.4,0-0.8,0-1.2c1.9,0,3.8,0,5.7,0
        c0-0.1,0-0.1,0-0.2c0-0.1,0-0.2,0-0.3c-2.2,0-4.4,0-6.6,0c0,0.6,0,1.3,0,1.9c0,0.3,0.2,0.5,0.5,0.6c0.1,0,0.3,0,0.4,0
        c1.1,0,2.3,0,3.4,0c0.2,0,0.4,0,0.6,0c0.5,0,0.8,0.3,0.8,0.7c0,0.4-0.2,0.8-0.6,0.9c-0.1,0-0.3,0-0.4,0c-1.5,0-3.1,0-4.6,0
        c-0.1,0-0.1,0-0.2,0C15.3,12,15.3,12.1,15.3,12.3z M1.3,12.3C1.3,12.3,1.4,12.2,1.3,12.3c0-0.5,0-0.8,0-1.2c0-0.6,0.3-0.9,0.9-0.9
        c1.2,0,2.4,0,3.7,0c0.7,0,1.2-0.5,1.3-1.1c0.1-0.7-0.3-1.2-1-1.4c-0.1,0-0.2,0-0.4,0c-1.8,0-3.5,0-5.3,0c-0.1,0-0.1,0-0.2,0
        c0,0.2,0,0.3,0,0.5c0.1,0,0.2,0,0.2,0c1.6,0,3.1,0,4.7,0c0.1,0,0.2,0,0.2,0c0.4,0,0.7,0.3,0.7,0.7c0,0.4-0.2,0.7-0.6,0.8
        c-0.1,0-0.2,0-0.3,0c-1.2,0-2.4,0-3.6,0c-0.8,0-1.3,0.5-1.3,1.3c0,0.4,0,0.8,0,1.1c0,0.1,0,0.1,0,0.2C0.7,12.3,1,12.3,1.3,12.3z
         M14.3,7.7c-0.1,0-0.1,0-0.2,0c-0.9,0-1.7,0-2.6,0c-0.1,0-0.2,0-0.3,0c-0.6,0.1-1,0.4-1.1,1c0,0.1,0,0.3,0,0.4c0,0.6,0,1.2,0,1.8
        c0,0.4-0.2,0.9-0.9,0.8c-0.7,0-1.4,0-2.1,0c-0.1,0-0.1,0-0.2,0c0,0.2,0,0.3,0,0.5c0,0,0,0,0,0c1,0,1.9,0,2.9,0
        c0.7,0,1.2-0.6,1.2-1.3c0-0.7,0-1.4,0-2c0-0.5,0.3-0.8,0.8-0.8c0.7,0,1.5,0,2.2,0c0.1,0,0.1,0,0.2,0C14.3,8,14.3,7.8,14.3,7.7z
         M23,11.8C23,11.8,23,11.8,23,11.8c-0.1,0-0.2,0-0.4,0c0,0,0,0,0,0c0,0,0.1,0,0.2,0c0,0.1,0,0.3,0,0.4c0,0,0,0,0,0
        c0-0.1,0-0.3,0-0.4C22.9,11.9,23,11.8,23,11.8z"/>
    <path class="st0" d="M23.6,12.3C23.6,12.3,23.5,12.3,23.6,12.3c-0.1-0.2-0.1-0.3-0.1-0.3c0,0.1-0.1,0.2-0.2,0.4
        c-0.1-0.2-0.1-0.3-0.2-0.4c0,0,0,0,0,0c0,0.1,0,0.2,0,0.3c0,0,0,0,0,0c0-0.2,0-0.3,0-0.5c0.2,0.1,0.1,0.3,0.2,0.4
        c0-0.1,0.1-0.2,0.1-0.3c0,0,0.1-0.1,0.1-0.1C23.6,12,23.6,12.1,23.6,12.3z"/>
    <path class="st0" d="M15.3,12.3c0-0.2,0-0.3,0-0.5c0.1,0,0.2,0,0.2,0c1.5,0,3.1,0,4.6,0c0.1,0,0.3,0,0.4,0c0.4-0.1,0.7-0.5,0.6-0.9
        c0-0.4-0.4-0.7-0.8-0.7c-0.2,0-0.4,0-0.6,0c-1.1,0-2.3,0-3.4,0c-0.1,0-0.3,0-0.4,0c-0.3-0.1-0.5-0.3-0.5-0.6c0-0.6,0-1.2,0-1.9
        c2.2,0,4.4,0,6.6,0c0,0.1,0,0.2,0,0.3c0,0.1,0,0.1,0,0.2c-1.9,0-3.8,0-5.7,0c0,0.4,0,0.8,0,1.2c0,0.2,0.2,0.3,0.4,0.3
        c0.4,0,0.8,0,1.2,0c0.9,0,1.8,0,2.8,0c0.2,0,0.4,0,0.6,0.1c0.6,0.2,0.9,0.7,0.9,1.3c0,0.6-0.4,1.1-1,1.2c-0.1,0-0.2,0-0.3,0
        c-1.8,0-3.6,0-5.4,0C15.4,12.3,15.4,12.3,15.3,12.3z"/>
    <path class="st0" d="M1.3,12.3c-0.3,0-0.6,0-0.9,0c0-0.1,0-0.1,0-0.2c0-0.4,0-0.8,0-1.1c0-0.8,0.5-1.3,1.3-1.3c1.2,0,2.4,0,3.6,0
        c0.1,0,0.2,0,0.3,0c0.4-0.1,0.6-0.4,0.6-0.8c0-0.4-0.3-0.6-0.7-0.7c-0.1,0-0.2,0-0.2,0c-1.6,0-3.1,0-4.7,0c-0.1,0-0.1,0-0.2,0
        c0-0.2,0-0.3,0-0.5c0.1,0,0.1,0,0.2,0c1.8,0,3.5,0,5.3,0c0.1,0,0.2,0,0.4,0c0.7,0.1,1.1,0.7,1,1.4c-0.1,0.6-0.6,1.1-1.3,1.1
        c-1.2,0-2.4,0-3.7,0c-0.6,0-0.9,0.3-0.9,0.9C1.4,11.5,1.4,11.8,1.3,12.3C1.4,12.2,1.3,12.3,1.3,12.3z"/>
    <path class="st0" d="M14.3,7.7c0,0.2,0,0.3,0,0.5c-0.1,0-0.1,0-0.2,0c-0.7,0-1.5,0-2.2,0c-0.5,0-0.8,0.3-0.8,0.8c0,0.7,0,1.4,0,2
        c0,0.7-0.5,1.3-1.2,1.3c-1,0-1.9,0-2.9,0c0,0,0,0,0,0c0-0.2,0-0.3,0-0.5c0.1,0,0.1,0,0.2,0c0.7,0,1.4,0,2.1,0
        c0.6,0,0.9-0.4,0.9-0.8c0-0.6,0-1.2,0-1.8c0-0.1,0-0.3,0-0.4c0.1-0.6,0.5-0.9,1.1-1c0.1,0,0.2,0,0.3,0c0.9,0,1.7,0,2.6,0
        C14.1,7.7,14.2,7.7,14.3,7.7z"/>
    <path class="st0" d="M23,11.8c0,0-0.1,0-0.2,0c0,0.1,0,0.3,0,0.4c0,0,0,0,0,0c0-0.1,0-0.3,0-0.4c-0.1,0-0.1,0-0.2,0c0,0,0,0,0,0
        C22.8,11.8,22.9,11.8,23,11.8C23,11.8,23,11.8,23,11.8z"/>
                            </g>
                        </g>
                    </g>
                </g>
            </g>
        </g>
    </g>
</svg>