<?xml version="1.0" encoding="UTF-8"?>
<svg width="24px" height="20px" viewBox="0 0 24 20" version="1.1" xmlns="http://www.w3.org/2000/svg" xmlns:xlink="http://www.w3.org/1999/xlink">
    <!-- Generator: Sketch 63.1 (92452) - https://sketch.com -->
    <title>Icon Shape</title>
    <desc>Created with Sketch.</desc>
    <g id="Welcome" stroke="none" stroke-width="1" fill="none" fill-rule="evenodd">
        <g id="Desktop-GameList" transform="translate(-409.000000, -1331.000000)" fill="#FFFFFF" fill-rule="nonzero">
            <g id="Cards" transform="translate(50.000000, 458.000000)">
                <g id="Dota-Underlords" transform="translate(318.000000, 627.000000)">
                    <g id="Platforms" transform="translate(0.000000, 244.000000)">
                        <g id="cib-playstation" transform="translate(41.000000, 0.000000)">
                            <g id="Icon">
                                <path d="M8.98425,2.598 L8.98425,20.145 L12.8985,21.40575 L12.8985,6.68775 C12.8985,5.9955 13.20375,5.535 13.69575,5.69475 C14.32875,5.8785 14.454,6.5115 14.454,7.203 L14.454,13.07775 C16.896,14.2695 18.81675,13.074 18.81675,9.9255 C18.81675,6.68775 17.69175,5.24925 14.37975,4.09725 C13.071,3.64725 10.6485,2.90925 8.98875,2.59725 L8.98425,2.598 Z M13.641,18.84 L19.938,16.56225 C20.652,16.305 20.76225,15.93825 20.184,15.74625 C19.59825,15.555 18.54675,15.60525 17.82375,15.867 L13.62075,17.367 L13.62075,14.97975 L13.8585,14.898 C13.8585,14.898 15.0615,14.47725 16.77225,14.28075 C18.468,14.1015 20.55825,14.3115 22.2105,14.94075 C24.0585,15.543 24.2535,16.41375 23.78475,17.016 C23.31975,17.613 22.164,18.051 22.164,18.051 L13.62075,21.156 L13.62075,18.85875 L13.641,18.84 Z M1.809,18.60225 C-0.09375,18.0555 -0.40575,16.93425 0.45675,16.27725 C1.25775,15.69525 2.613,15.22725 2.613,15.22725 L8.22975,13.215 L8.22975,15.52725 L4.20675,17.00025 C3.4995,17.27025 3.3825,17.63325 3.969,17.8245 C4.55475,18.02025 5.60475,17.9775 6.309,17.7075 L8.24625,17.00025 L8.24625,19.074 C8.12925,19.10175 7.992,19.11675 7.8555,19.14825 C5.91825,19.4775 3.86325,19.344 1.82025,18.66825 L1.809,18.60225 Z" id="Icon-Shape"></path>
                            </g>
                        </g>
                    </g>
                </g>
            </g>
        </g>
    </g>
</svg>