<?xml version="1.0" encoding="UTF-8"?>
<svg width="20px" height="20px" viewBox="0 0 20 20" version="1.1" xmlns="http://www.w3.org/2000/svg" xmlns:xlink="http://www.w3.org/1999/xlink">
    <!-- Generator: Sketch 63.1 (92452) - https://sketch.com -->
    <title>ant-design:search-outlined</title>
    <desc>Created with Sketch.</desc>
    <g id="Welcome" stroke="none" stroke-width="1" fill="none" fill-rule="evenodd">
        <g id="Desktop-GameList" transform="translate(-709.000000, -74.000000)" fill-rule="nonzero">
            <g id="Header" transform="translate(51.000000, 50.000000)">
                <g id="Text-Input" transform="translate(640.000000, 13.000000)">
                    <g id="ant-design:search-outlined" transform="translate(16.000000, 9.000000)">
                        <g id="Icon" transform="translate(2.000000, 2.000000)" fill="#FFFFFF">
                            <path d="M19.31875,18.0273437 L13.2320313,11.940625 C14.1765625,10.7195312 14.6875,9.2265625 14.6875,7.65625 C14.6875,5.7765625 13.9539063,4.0140625 12.6273438,2.68515625 C11.3007812,1.35625 9.53359375,0.625 7.65625,0.625 C5.77890625,0.625 4.01171875,1.35859375 2.68515625,2.68515625 C1.35625,4.01171875 0.625,5.7765625 0.625,7.65625 C0.625,9.53359375 1.35859375,11.3007812 2.68515625,12.6273437 C4.01171875,13.95625 5.7765625,14.6875 7.65625,14.6875 C9.2265625,14.6875 10.7171875,14.1765625 11.9382813,13.234375 L18.025,19.31875 C18.0610454,19.3548169 18.1099464,19.3750808 18.1609375,19.3750808 C18.2119286,19.3750808 18.2608296,19.3548169 18.296875,19.31875 L19.31875,18.2992187 C19.3548169,18.2631733 19.3750808,18.2142724 19.3750808,18.1632812 C19.3750808,18.1122901 19.3548169,18.0633892 19.31875,18.0273437 Z M11.36875,11.36875 C10.375,12.3601562 9.0578125,12.90625 7.65625,12.90625 C6.2546875,12.90625 4.9375,12.3601562 3.94375,11.36875 C2.95234375,10.375 2.40625,9.0578125 2.40625,7.65625 C2.40625,6.2546875 2.95234375,4.93515625 3.94375,3.94375 C4.9375,2.95234375 6.2546875,2.40625 7.65625,2.40625 C9.0578125,2.40625 10.3773438,2.95 11.36875,3.94375 C12.3601562,4.9375 12.90625,6.2546875 12.90625,7.65625 C12.90625,9.0578125 12.3601563,10.3773437 11.36875,11.36875 Z" id="Icon-Shape"></path>
                        </g>
                        <rect id="ViewBox" x="0" y="0" width="24" height="24"></rect>
                    </g>
                </g>
            </g>
        </g>
    </g>
</svg>