<svg id="Calque_2" data-name="Calque 2" xmlns="http://www.w3.org/2000/svg" width="135.38" height="59.34" viewBox="0 0 135.38 59.34"><defs><style>.cls-1{fill:none;stroke:#f6f6f6;stroke-miterlimit:10;stroke-width:0.25px;}</style></defs><path class="cls-1" d="M82.43,61.05c1.78-.1,3.56-.25,5.34-.28,3.64,0,7.28,0,11,0v3.36H92.64V80.27H89V64.4l-6.54-.59Z" transform="translate(-82.31 -60.33)"/><path class="cls-1" d="M190.45,114.56h-3.54c0-2.79,0-5.53,0-8.26,0-2.29-1.07-3.52-2.84-3.57a2.81,2.81,0,0,0-3.17,3c-.06,2.88,0,5.76,0,8.79h-3.51V100.1c1.32.13,2.83-1,3.7.94,3.79-2.12,5.53-1.93,8.11.57,1.83-.7,3.39-1.66,5-1.86a4.73,4.73,0,0,1,5.51,4.44c.27,3.38.06,6.79.06,10.33h-3.32c0-2.68.18-5.43-.08-8.13a5,5,0,0,0-1.78-3.4c-1.77-1.14-4.07.45-4.12,2.66C190.39,108.59,190.45,111.53,190.45,114.56Z" transform="translate(-82.31 -60.33)"/><path class="cls-1" d="M142.52,117.55l1.23-2.35c5.8,2.66,9.54,1.3,9.24-3a37.18,37.18,0,0,1-5.49,1.23,5.43,5.43,0,0,1-5-2.79,7.55,7.55,0,0,1,.91-9.26c2.45-2.35,6-2.35,9.22,0,.82-1.6.82-1.6,4.08-1.26v4.19c0,2.56,0,5.12,0,7.68-.05,4.69-2.34,7.14-7.11,7.49A10.24,10.24,0,0,1,142.52,117.55Zm10.54-10.93a3.66,3.66,0,0,0-4-3.89,3.76,3.76,0,0,0-4,3.79,3.93,3.93,0,0,0,4,4.06A3.77,3.77,0,0,0,153.06,106.62Z" transform="translate(-82.31 -60.33)"/><path class="cls-1" d="M148.45,80.27h-3.59V60.89h3.42v7.72h9.9V60.9h3.61V80.25H158.3v-8h-9.85Z" transform="translate(-82.31 -60.33)"/><path class="cls-1" d="M94.4,95.33c3.51,0,6.9-.24,10.24.07a6.05,6.05,0,0,1,5.61,6.49,6.3,6.3,0,0,1-5.91,6.08c-2,.22-4.1.23-6.34.34v6.2H94.4ZM98,104.88c2.06-.09,4-.06,6-.32a2.83,2.83,0,0,0,2.62-3,2.87,2.87,0,0,0-2.71-2.91,54.81,54.81,0,0,0-5.88,0Z" transform="translate(-82.31 -60.33)"/><path class="cls-1" d="M186.63,78.52V85.2h-3.38V65.84h3.3l.22,1.46c5.4-3.36,9.56-2.73,11.61,3.74a7.79,7.79,0,0,1-2.91,8.59C192.89,81.35,190.24,81.07,186.63,78.52Zm4.26-10.09c-2.45,0-4.15,1.81-4.2,4.5s1.72,4.72,4.19,4.71a4.27,4.27,0,0,0,4.21-4.51C195.14,70.4,193.39,68.44,190.89,68.43Z" transform="translate(-82.31 -60.33)"/><path class="cls-1" d="M102.06,60.47c.78,0,1.38,0,2,0,1.11-.09,1.56.35,1.51,1.48-.07,1.63,0,3.27,0,4.73a23.19,23.19,0,0,1,4.5-1.25,4.85,4.85,0,0,1,5.44,4.39c.26,3.44.06,6.92.06,10.44h-3.45c0-2.71,0-5.32,0-7.93s-1-3.91-3.11-3.9c-2.24,0-3.42,1.31-3.44,3.86s0,5.23,0,7.95h-3.46Z" transform="translate(-82.31 -60.33)"/><path class="cls-1" d="M133,74.32h-10.8c1,3.55,3.69,4.18,7.76,1.85l2,2.21a8.4,8.4,0,0,1-10.28,1.08A7.9,7.9,0,0,1,119,69.68a7.63,7.63,0,0,1,8.77-4.16C131.19,66.39,133.29,69.74,133,74.32Zm-3.48-2.89c-.83-2.3-2-3.16-4-2.89-1.62.22-2.92.93-3.22,2.89Z" transform="translate(-82.31 -60.33)"/><path class="cls-1" d="M212.64,76.32l2.12,1.9c-2,2.55-7.11,3.41-10.33,1.27a7.9,7.9,0,0,1-2.66-9.94,7.54,7.54,0,0,1,8.83-4c3.43,1,5.58,4.56,5,8.71h-10.7C205.84,77.79,208.34,78.4,212.64,76.32Zm-.33-4.95c-.67-2.05-1.93-3-3.9-2.84a3.6,3.6,0,0,0-3.47,2.84Z" transform="translate(-82.31 -60.33)"/><path class="cls-1" d="M214.45,110.56l2.11,1.9c-2.16,2.7-6.66,3.35-9.86,1.56a7.77,7.77,0,0,1-3.33-9.73,7.64,7.64,0,0,1,8.78-4.5c3.5.78,5.73,4.31,5.38,8.74H206.86C207.4,112,210.36,112.76,214.45,110.56Zm-.32-4.89c-.63-2-1.78-2.91-3.68-2.85a3.83,3.83,0,0,0-3.75,2.85Z" transform="translate(-82.31 -60.33)"/><path class="cls-1" d="M170.05,105.42c.06-2.89-2.36-3.67-7.38-1.83l-1.26-2.31c2.84-1.59,5.73-2.21,8.77-1.12a5.09,5.09,0,0,1,3.51,4.82c.14,3.13,0,6.28,0,9.6-1.36-.18-2.88.91-3.79-1-1.95,1.25-4.07,2-6.49,1.15-1.9-.69-3.16-1.86-3.32-4s.83-4,2.79-4.51C165.11,105.58,167.52,105.67,170.05,105.42Zm.09,2.61a36.47,36.47,0,0,0-5.23.41c-.54.12-1.16,1.28-1.16,2a2.44,2.44,0,0,0,1.31,1.71C167.57,113.28,170.22,111.44,170.14,108Z" transform="translate(-82.31 -60.33)"/><path class="cls-1" d="M131.4,99.67a7.91,7.91,0,0,1,7.95,7.67,8.08,8.08,0,0,1-8,7.7,7.88,7.88,0,0,1-8-7.83A7.77,7.77,0,0,1,131.4,99.67Zm-.05,12.27a4.6,4.6,0,0,0,0-9.2,4.6,4.6,0,0,0,0,9.2Z" transform="translate(-82.31 -60.33)"/><path class="cls-1" d="M165.22,84.57l.72-2.23c.57.12,1.06.27,1.56.33a2.23,2.23,0,0,0,2.44-3.12c-1.67-4-3.39-8-5.08-11.94-.22-.53-.39-1.08-.59-1.64,3.29-.72,3.44-.64,4.59,2.26l3.29,8.23,3-8.11c1.1-2.95,1.1-2.95,4.63-2.47C178.18,70,176.57,74,175,78.09c-.56,1.4-1.09,2.82-1.77,4.16C171.52,85.52,168.79,86.34,165.22,84.57Z" transform="translate(-82.31 -60.33)"/><path class="cls-1" d="M116.42,114.59h-3.28V100.13h3.38l.14,1.65,5.07-2.65v3.39c-.31.08-.66.2-1,.27-2.68.49-4,2-4.09,4.72,0,2.23,0,4.45,0,6.68A2.26,2.26,0,0,1,116.42,114.59Z" transform="translate(-82.31 -60.33)"/><path class="cls-1" d="M129.55,71.43h-7.2" transform="translate(-82.31 -60.33)"/><path class="cls-1" d="M212.31,71.37h-7.37" transform="translate(-82.31 -60.33)"/><path class="cls-1" d="M214.13,105.67H206.7" transform="translate(-82.31 -60.33)"/></svg>