<?xml version="1.0" encoding="UTF-8"?>
<svg width="20px" height="20px" viewBox="0 0 20 20" version="1.1" xmlns="http://www.w3.org/2000/svg" xmlns:xlink="http://www.w3.org/1999/xlink">
    <!-- Generator: Sketch 63.1 (92452) - https://sketch.com -->
    <title>cib-xbox</title>
    <desc>Created with Sketch.</desc>
    <g id="Welcome" stroke="none" stroke-width="1" fill="none" fill-rule="evenodd">
        <g id="Desktop-GameList" transform="translate(-450.000000, -1331.000000)" fill-rule="nonzero">
            <g id="Cards" transform="translate(50.000000, 458.000000)">
                <g id="Dota-Underlords" transform="translate(318.000000, 627.000000)">
                    <g id="Platforms" transform="translate(0.000000, 244.000000)">
                        <g id="cib-xbox" transform="translate(82.000000, 2.000000)">
                            <g id="Icon" fill="#FFFFFF">
                                <path id="path56" class="st0" d="M4.7,19.3c0-0.2,0-0.2,0.1-0.2c0.3-0.1,0.4-0.8,0-0.8c-0.2,0-0.2,0.1-0.3,0.4
                                c-0.1,0.4-0.2,0.6-0.5,0.6c-0.2,0-0.4-0.1-0.5-0.3c-0.1-0.1-0.1-0.5,0-0.7c0.1-0.2,0.1-0.3,0.3-0.3C4,18,4,18,4,18.1
                                c0,0.2,0,0.2-0.1,0.2c-0.1,0-0.2,0.1-0.2,0.4c0,0.2,0,0.2,0.1,0.3C3.9,19,4,19,4.1,19c0.1-0.1,0.1-0.2,0.2-0.5
                                c0-0.1,0.1-0.3,0.2-0.4C4.6,18,4.8,17.9,4.9,18c0.1,0,0.3,0.2,0.3,0.4c0.1,0.3,0,0.7-0.2,0.9c-0.1,0.1-0.3,0.2-0.4,0.2
                                C4.7,19.4,4.7,19.3,4.7,19.3L4.7,19.3z M6.1,19.4c0,0,0.1-0.2,0.3-0.4c0.2-0.2,0.3-0.5,0.4-0.5C6.8,18.4,7,18.2,7.1,18
                                c0.1-0.2,0.3-0.4,0.4-0.6C7.6,17.3,7.8,17,8,16.7c0.2-0.3,0.5-0.6,0.6-0.8c0.4-0.6,0.4-0.6,0.5-0.5c0.1,0.1,0.2,0.2,0.5,0.7
                                c0.2,0.2,0.3,0.4,0.3,0.5c0.1,0.2,0.3,0.4,0.3,0.5c0,0-0.4,0.6-0.5,0.7c0,0-0.1,0.1-0.1,0.2c-0.1,0.1-0.2,0.3-0.3,0.5
                                c-0.4,0.5-0.5,0.7-0.6,0.9l-0.1,0.2H7.3C6.6,19.4,6.1,19.4,6.1,19.4L6.1,19.4z M14.3,19.3c-0.2-0.2-0.7-1-0.7-1
                                c0,0-0.3-0.4-0.6-0.8c-0.4-0.6-0.5-0.7-0.5-0.8c0,0-0.1-0.1-0.2-0.2c-0.1-0.1-0.2-0.3-0.3-0.4c-0.1-0.1-0.2-0.3-0.2-0.3
                                s-0.2-0.3-0.4-0.5s-0.3-0.5-0.4-0.5s-0.2-0.3-0.4-0.5c-0.3-0.4-0.6-0.8-1.3-1.8c-0.2-0.2-0.5-0.7-0.7-0.9
                                c-0.5-0.7-0.9-1.2-1.5-2.1C6.8,9,6.5,8.6,6.5,8.5S6.4,8.4,6.4,8.4c0,0,0.5,0,1.2,0l1.2,0L9,8.7c0.4,0.6,0.6,0.8,1,1.3
                                c0.2,0.3,0.5,0.7,0.7,1c0.2,0.3,0.4,0.6,0.6,0.8c0.1,0.2,0.3,0.4,0.4,0.5c0.1,0.1,0.2,0.2,0.2,0.2c0,0,0.2,0.2,0.3,0.4
                                c0.2,0.2,0.3,0.4,0.4,0.5c0.1,0.1,0.3,0.5,0.9,1.3c0.1,0.1,0.2,0.3,0.2,0.3c0,0,0.1,0.2,0.3,0.4c0.3,0.5,0.9,1.3,1.3,1.8
                                c0.2,0.2,0.3,0.4,0.3,0.4c0.3,0.4,0.7,0.9,1,1.4c0.1,0.2,0.3,0.4,0.3,0.4c0,0-0.5,0-1.2,0h-1.2L14.3,19.3z M3.5,16.6v-0.6
                                h0.2h0.2v0.5v0.5l0.2,0l0.2,0v-0.4V16l0.1,0l0.1,0v0.4v0.4h0.2H5v-0.5v-0.5h0.2h0.2v0.6v0.6H4.4H3.5V16.6z M3.5,14.7
                                c0-0.5,0-0.5,0.1-0.7c0.1-0.1,0.3-0.3,0.4-0.3c0.1,0,0.3,0.1,0.4,0.2l0,0.1L4.5,14c0.1-0.1,0.2-0.1,0.4-0.2
                                c0.1,0,0.3,0,0.3,0l0.1,0v0.2c0,0.2,0,0.2-0.3,0.2c-0.1,0-0.2,0-0.2,0c-0.1,0-0.1,0.1-0.1,0.4v0.3h0.3h0.3V15v0.2H4.4H3.5
                                L3.5,14.7z M4.3,14.6c0-0.3,0-0.4-0.2-0.5c-0.1,0-0.1,0-0.2,0c-0.1,0-0.1,0.1-0.1,0.1c0,0.1,0,0.6,0,0.6c0,0,0.1,0,0.3,0h0.3
                                L4.3,14.6L4.3,14.6z M3.5,12.8v-0.2h0.9h0.9v0.2V13H4.4H3.5V12.8z M13.5,11.6c-0.2-0.2-0.4-0.6-0.6-0.8l-0.3-0.4l0.1-0.1
                                c0.1-0.1,0.1-0.2,0.1-0.2c0,0,0.1-0.2,0.3-0.4c0.1-0.2,0.3-0.4,0.3-0.4c0.1-0.1,0.1-0.2,0.1-0.2c0,0,0.1-0.2,0.3-0.4l0.2-0.3
                                h1.2h1.2l-0.1,0.1c0,0-0.1,0.2-0.2,0.3C16.1,8.9,16,9,15.9,9.1c-0.1,0.1-0.3,0.4-0.4,0.6c0,0-0.2,0.2-0.3,0.4
                                c-0.2,0.2-0.4,0.6-0.5,0.8c-0.1,0.2-0.3,0.4-0.3,0.5c0,0-0.1,0.2-0.2,0.3c-0.1,0.1-0.2,0.2-0.2,0.3L13.8,12L13.5,11.6z
                                 M3.5,11.8c0,0,0-0.3,0-0.7l0-0.6l0.1,0l0.1,0V11v0.5H4h0.2l0-0.4l0-0.4h0.1h0.1l0,0.4l0,0.4h0.2H5V11v-0.5h0.2h0.2l0,0.7
                                l0,0.7l-0.9,0C3.7,11.8,3.5,11.8,3.5,11.8z M4.7,9.7c0-0.2,0-0.2,0.1-0.2C5,9.4,5.1,9.3,5.1,9c0-0.1-0.1-0.3-0.1-0.3
                                c-0.2-0.1-0.3,0-0.4,0.4C4.5,9.4,4.4,9.6,4.3,9.7C4.2,9.7,4.1,9.7,4,9.7c-0.2,0-0.2,0-0.3-0.1C3.6,9.6,3.5,9.4,3.5,9.1
                                c0-0.4,0.1-0.6,0.5-0.7C4,8.4,4,8.4,4,8.5c0,0.2,0,0.2-0.1,0.2c-0.1,0-0.2,0.2-0.2,0.4c0,0.2,0.1,0.3,0.2,0.3
                                c0.1,0,0.2-0.1,0.3-0.3c0.1-0.4,0.1-0.5,0.2-0.6c0.2-0.2,0.6-0.2,0.8,0.1C5.3,8.7,5.3,9,5.3,9.2c0,0.3-0.2,0.5-0.4,0.5
                                C4.7,9.8,4.7,9.8,4.7,9.7L4.7,9.7z M12.1,7.1c-0.9-0.1-1.6-0.7-1.9-1.5c-0.1-0.3-0.2-0.6-0.2-1c0-0.7,0.1-1.1,0.4-1.6
                                C11,2.3,11.8,1.9,12.8,2c1,0.1,1.7,0.7,2,1.7c0.1,0.3,0.1,0.4,0.1,0.8c0,0.4,0,0.5-0.1,0.8c-0.1,0.5-0.3,0.9-0.7,1.2
                                c-0.2,0.2-0.6,0.4-1,0.5C12.8,7.1,12.4,7.1,12.1,7.1z M12.9,6.3c0.3-0.1,0.6-0.3,0.8-0.6c0.2-0.2,0.2-0.5,0.3-0.9
                                c0.1-0.7-0.1-1.4-0.5-1.8C13,2.5,12,2.5,11.4,3C11.3,3.2,11,3.5,11,3.7c-0.2,0.5-0.2,1.2,0,1.7c0.1,0.3,0.4,0.7,0.7,0.8
                                C12.1,6.4,12.5,6.5,12.9,6.3L12.9,6.3z M1.1,6.9c0-0.1,0.1-0.1,0.1-0.2c0.1-0.1,0.6-0.8,1-1.3C2.3,5.2,2.4,5,2.6,4.8l0.2-0.3
                                L2.6,4.1C2.4,3.9,2.3,3.6,2.2,3.6C2.1,3.5,1.9,3.2,1.7,2.9S1.3,2.3,1.2,2.2L1.1,2.1l0.4,0l0.4,0L2,2.2c0,0.1,0.2,0.3,0.4,0.6
                                C2.6,3,2.9,3.4,3,3.6c0.1,0.2,0.2,0.3,0.2,0.3c0,0,0.1-0.1,0.2-0.2c0.1-0.1,0.2-0.3,0.3-0.4S3.9,3,4,2.8
                                c0.1-0.2,0.3-0.4,0.3-0.5c0.1-0.1,0.1-0.2,0.2-0.2c0,0,0.1,0,0.4,0l0.4,0L5.1,2.4C5,2.6,4.8,2.8,4.8,2.9
                                C4.7,3.1,4.5,3.2,4.5,3.3C4.4,3.4,4.2,3.7,4,3.9C3.9,4.2,3.7,4.4,3.7,4.4c0,0,0.1,0.2,0.6,0.9C4.7,5.8,5.5,6.9,5.5,7
                                c0,0-0.2,0-0.4,0H4.7L4.5,6.8C4.4,6.6,4.3,6.4,4.1,6.2S3.8,5.7,3.6,5.5C3.4,5.2,3.3,5,3.2,5c0,0,0,0-0.1,0.1
                                C3.1,5.2,3,5.4,2.5,6C2.5,6.1,2.3,6.3,2.2,6.5C2.1,6.6,1.9,6.8,1.9,6.9L1.8,7H1.4H1L1.1,6.9z M5.9,5.9V4.8H5.4
                                c-0.3,0-0.5,0-0.5,0c0,0,0.1-0.2,0.2-0.3l0.2-0.3h0.3h0.3v-1v-1l1.3,0c1.2,0,1.3,0,1.5,0.1c0.4,0.2,0.6,0.3,0.8,0.7
                                C9.6,3,9.6,3.1,9.6,3.4c0,0.3,0,0.3-0.1,0.5C9.4,4.1,9.3,4.2,9.1,4.3L9,4.4l0.2,0.1c0.1,0,0.2,0.2,0.3,0.3
                                C9.7,5,9.8,5.2,9.8,5.6c0,0.6-0.2,1-0.7,1.2C8.8,7,8.6,7,7.2,7H5.9V5.9z M8.6,6.3C9,6.1,9.1,5.8,9,5.3C9,5.1,8.8,5,8.7,4.9
                                C8.6,4.8,8.5,4.8,7.6,4.8l-1,0v0.8v0.8l0.9,0C8.4,6.3,8.5,6.3,8.6,6.3L8.6,6.3z M8.4,4.1c0.2-0.1,0.4-0.2,0.4-0.4
                                c0.1-0.3,0-0.6-0.2-0.8C8.5,2.8,8.4,2.7,7.4,2.7H6.6v0.7v0.7h0.8C8.1,4.2,8.3,4.2,8.4,4.1z M14.6,6.9c0,0,0.4-0.5,0.8-1.1
                                c0.4-0.6,0.8-1.2,0.9-1.2l0.1-0.1L16,4c-0.2-0.3-0.5-0.6-0.6-0.8c-0.1-0.2-0.3-0.4-0.4-0.5c-0.2-0.3-0.3-0.5-0.4-0.5
                                c0,0,0.1,0,0.4,0h0.4L16.1,3c0.3,0.5,0.6,0.9,0.6,0.9s0.1-0.1,0.2-0.2c0.1-0.1,0.2-0.3,0.3-0.4c0.1-0.1,0.2-0.3,0.3-0.4
                                s0.3-0.4,0.3-0.5l0.1-0.2l0.4,0c0.2,0,0.4,0,0.4,0c0,0-0.8,1.2-1,1.4c0,0-0.2,0.3-0.4,0.5l-0.3,0.4l0.3,0.4
                                c0.2,0.2,0.3,0.5,0.3,0.5c0,0,0.1,0.2,0.2,0.3c0.1,0.1,0.3,0.4,0.4,0.6s0.3,0.4,0.3,0.4c0.1,0.1,0.1,0.2,0.2,0.2L19,7h-0.4
                                h-0.4l-0.5-0.6c-0.8-1.1-1-1.3-1-1.3c0,0-0.1,0.1-0.2,0.3c-0.1,0.2-0.3,0.4-0.4,0.5c-0.1,0.1-0.3,0.4-0.4,0.6
                                s-0.3,0.4-0.3,0.4L15.3,7h-0.4C14.6,7,14.5,7,14.6,6.9z"/>
                            </g>
                            <rect id="ViewBox" x="0" y="0" width="20" height="20"></rect>
                        </g>
                    </g>
                </g>
            </g>
        </g>
    </g>
</svg>