<?xml version="1.0" encoding="UTF-8"?>
<svg width="20px" height="20px" viewBox="0 0 20 20" version="1.1" xmlns="http://www.w3.org/2000/svg" xmlns:xlink="http://www.w3.org/1999/xlink">
    <!-- Generator: Sketch 63.1 (92452) - https://sketch.com -->
    <title>cib-xbox</title>
    <desc>Created with Sketch.</desc>
    <g id="Welcome" stroke="none" stroke-width="1" fill="none" fill-rule="evenodd">
        <g id="Desktop-GameList" transform="translate(-450.000000, -1331.000000)" fill-rule="nonzero">
            <g id="Cards" transform="translate(50.000000, 458.000000)">
                <g id="Dota-Underlords" transform="translate(318.000000, 627.000000)">
                    <g id="Platforms" transform="translate(0.000000, 244.000000)">
                        <g id="cib-xbox" transform="translate(82.000000, 2.000000)">
                            <g id="Icon" fill="#FFFFFF">
                                <path d="M3.418125,17.525625 C5.23741876,19.1246463 7.57787726,20.0045129 10,20.0000173 C12.5225,20.0000173 14.824375,19.069375 16.585,17.525625 C18.1475,15.93375 12.988125,10.27 10,8.01375 C7.015,10.269375 1.8525,15.93375 3.418125,17.525625 Z M12.718125,5.524375 C14.80125,7.991875 18.955,14.1175 17.783125,16.2825 C19.2211894,14.506021 20.003991,12.2887083 20.0000152,10.003125 C20.0000152,7.22 18.864375,4.700625 17.025,2.890625 C17.025,2.890625 17.001875,2.870625 16.956875,2.855 C16.881343,2.82900158 16.8017188,2.81693088 16.721875,2.819375 C16.23125,2.819375 15.06875,3.18 12.71875,5.524375 L12.718125,5.524375 Z M3.043125,2.855 C2.998125,2.870625 2.975,2.890625 2.97125,2.890625 C1.06597451,4.76636324 -0.00498824183,7.32946653 -0.000638280228,10.003125 C-0.000638280228,12.3825 0.829375,14.56375 2.21625,16.27875 C1.05125,14.11125 5.198125,7.988125 7.284375,5.52375 C4.934375,3.17625 3.76875,2.81875 3.2775,2.81875 C3.19725481,2.81496238 3.11712801,2.82838789 3.0425,2.858125 L3.043125,2.855 Z M10,2.959375 C10,2.959375 7.545625,1.52375 5.628125,1.455 C4.87625,1.429375 4.4175,1.699375 4.36125,1.738125 C6.14875,0.5375 8.049375,0 9.98625,0 L9.999375,0 C11.94625,0 13.836875,0.5375 15.6375,1.738125 C15.581875,1.69875 15.125625,1.42875 14.370625,1.455 C12.453125,1.523125 9.99875,2.955625 9.99875,2.955625 L10,2.959375 Z" id="Icon-Shape"></path>
                            </g>
                            <rect id="ViewBox" x="0" y="0" width="20" height="20"></rect>
                        </g>
                    </g>
                </g>
            </g>
        </g>
    </g>
</svg>